<svg xmlns:inkscape="http://www.inkscape.org/namespaces/inkscape"
     xmlns:sodipodi="http://sodipodi.sourceforge.net/DTD/sodipodi-0.dtd" xmlns="http://www.w3.org/2000/svg"
     xmlns:svg="http://www.w3.org/2000/svg" xmlns:rdf="http://www.w3.org/1999/02/22-rdf-syntax-ns#"
     xmlns:cc="http://creativecommons.org/ns#" xmlns:dc="http://purl.org/dc/elements/1.1/"
     viewBox="0 0 16.933333 21.1666675" version="1.1" x="0px" y="0px">
    <g>
        <path style="color:#000000;paint-order:fill markers stroke;"
              d="M 4.392575,4.628139 A 0.26452056,0.26452056 0 0 0 4.1291121,4.8936668 v 0.705146 A 0.26449412,0.26449412 0 0 0 4.392575,5.8643406 0.26449412,0.26449412 0 0 0 4.6581011,5.5988128 V 5.1571282 H 11.910002 V 10.6769 H 8.0779325 C 7.9581773,10.049239 7.4132103,9.5677793 6.7590758,9.5677793 c -0.6541345,0 -1.1973955,0.4814597 -1.316791,1.1091207 H 4.392575 a 0.26449412,0.26449412 0 0 0 -0.2634629,0.263463 0.26449412,0.26449412 0 0 0 0.2634629,0.265526 h 1.0512598 c 0.1230957,0.622951 0.6644524,1.099305 1.315241,1.099305 0.6507859,0 1.1938434,-0.476354 1.3173067,-1.099305 h 4.0991485 0.929863 c 0.123463,0.622951 0.66652,1.099305 1.317306,1.099305 0.650783,0 1.193322,-0.476359 1.316791,-1.099305 h 0.930378 a 0.26452056,0.26452056 0 0 0 0.263463,-0.265526 V 8.345526 A 0.26452056,0.26452056 0 0 0 16.894585,8.2070805 L 15.46518,5.9092845 A 0.26452056,0.26452056 0 0 0 15.240979,5.7842695 H 12.438991 V 4.8936668 A 0.26452056,0.26452056 0 0 0 12.17553,4.628139 Z m 8.046417,1.6851188 h 2.65321 l 1.312141,2.1087235 V 10.6769 H 15.741557 C 15.621823,10.049213 15.076855,9.5677793 14.4227,9.5677793 c -0.654134,0 -1.199101,0.4814597 -1.318857,1.1091207 H 12.438992 Z M 3.6295694,6.5534731 A 0.26449412,0.26449412 0 0 0 3.3640407,6.8169346 0.26449412,0.26449412 0 0 0 3.6295694,7.080395 H 6.2652143 A 0.26449412,0.26449412 0 0 0 6.530743,6.8169346 0.26449412,0.26449412 0 0 0 6.2652143,6.5534731 Z M 1.9465171,8.0174912 A 0.26449412,0.26449412 0 0 0 1.6825384,8.2814695 0.26449412,0.26449412 0 0 0 1.9465171,8.5469963 H 5.4236882 A 0.26449412,0.26449412 0 0 0 5.6892169,8.2814695 0.26449412,0.26449412 0 0 0 5.4236882,8.0174912 Z M 0.26346477,9.4820251 A 0.26449412,0.26449412 0 0 0 1.8280594e-6,9.7475539 0.26449412,0.26449412 0 0 0 0.26346477,10.011014 H 4.582162 A 0.26449412,0.26449412 0 0 0 4.8476907,9.7475539 0.26449412,0.26449412 0 0 0 4.582162,9.4820251 Z M 6.7384134,10.095218 c 0.00699,-1.8e-4 0.013648,0 0.020657,0 0.4490005,0 0.8141484,0.371046 0.8141484,0.841526 0,0.470483 -0.3651479,0.839461 -0.8141484,0.839461 -0.4490005,0 -0.8120799,-0.368978 -0.8120799,-0.839461 0,-0.463129 0.3521372,-0.830176 0.7914176,-0.841526 z m 7.6631056,0 c 0.007,-1.8e-4 0.01417,0 0.02118,0 0.449001,0 0.814149,0.371046 0.814149,0.841526 0,0.470483 -0.365148,0.839461 -0.814149,0.839461 -0.449,0 -0.814148,-0.368978 -0.814148,-0.839461 0,-0.463129 0.353629,-0.830176 0.792967,-0.841526 z"
              fill="#000000" fill-rule="evenodd" stroke-width="1" stroke-linejoin="round"/>
    </g>
    <text x="0" y="31.933334" fill="#000000" font-size="5px" font-weight="bold"
          font-family="'Helvetica Neue', Helvetica, Arial-Unicode, Arial, Sans-serif">Created by Larea
    </text>
    <text x="0" y="36.933334" fill="#000000" font-size="5px" font-weight="bold"
          font-family="'Helvetica Neue', Helvetica, Arial-Unicode, Arial, Sans-serif">from the Noun Project
    </text>
</svg>
