<?xml version="1.0" encoding="UTF-8"?>
<!DOCTYPE svg PUBLIC "-//W3C//DTD SVG 1.1//EN" "http://www.w3.org/Graphics/SVG/1.1/DTD/svg11.dtd">
<svg xmlns="http://www.w3.org/2000/svg" version="1.1" width="2000px" height="2000px" style="shape-rendering:geometricPrecision; text-rendering:geometricPrecision; image-rendering:optimizeQuality; fill-rule:evenodd; clip-rule:evenodd" xmlns:xlink="http://www.w3.org/1999/xlink">
<g><path style="opacity:0.973" fill="#fefffe" d="M 423.5,936.5 C 424.89,862.381 440.39,791.381 470,723.5C 487.161,678.339 514.995,641.172 553.5,612C 587.059,588.051 623.392,569.051 662.5,555C 720.741,535.19 780.408,521.523 841.5,514C 945.562,501.332 1049.9,497.665 1154.5,503C 1154.17,503.333 1153.83,503.667 1153.5,504C 1149.23,505.03 1144.89,505.697 1140.5,506C 1061.43,509.034 982.76,516.367 904.5,528C 826.535,539.323 751.201,559.99 678.5,590C 636.31,608.576 597.976,632.909 563.5,663C 537.581,687.348 516.915,715.514 501.5,747.5C 502.09,748.799 503.09,749.632 504.5,750C 514.5,750.667 524.5,750.667 534.5,750C 603.819,742.868 673.152,735.868 742.5,729C 804.721,722.816 867.054,721.15 929.5,724C 959.539,725.172 988.539,731.172 1016.5,742C 1034.3,750.468 1045.47,764.302 1050,783.5C 1052.91,796.329 1054.07,809.329 1053.5,822.5C 1051.63,853.843 1049.63,885.176 1047.5,916.5C 1001.89,919.611 956.227,921.778 910.5,923C 854.369,949.899 798.703,977.565 743.5,1006C 682.323,1029.73 620.989,1053.06 559.5,1076C 557.247,1081.25 555.747,1086.75 555,1092.5C 543.73,1159.22 534.563,1226.22 527.5,1293.5C 520.03,1295.95 512.363,1297.28 504.5,1297.5C 504.836,1288.47 505.503,1279.47 506.5,1270.5C 410.165,1268.89 313.831,1267.22 217.5,1265.5C 217.091,1272.6 216.091,1279.6 214.5,1286.5C 311.843,1291.33 409.176,1296.5 506.5,1302C 582.168,1301.47 657.835,1300.47 733.5,1299C 766.008,1298.48 797.675,1293.98 828.5,1285.5C 822.582,1291.8 815.582,1296.63 807.5,1300C 775.768,1311.21 743.101,1318.21 709.5,1321C 643.301,1327.51 576.968,1329.51 510.5,1327C 429.137,1321.78 347.804,1316.11 266.5,1310C 243.176,1308.92 219.843,1308.08 196.5,1307.5C 180.739,1305.31 166.906,1309.31 155,1319.5C 146.255,1332.89 143.255,1347.55 146,1363.5C 149.343,1391.68 160.843,1415.85 180.5,1436C 183.934,1438.43 187.6,1440.43 191.5,1442C 342.513,1459.21 493.847,1472.88 645.5,1483C 682.489,1485.52 719.489,1485.85 756.5,1484C 772.116,1484.11 783.949,1477.61 792,1464.5C 795.727,1456.04 799.727,1447.71 804,1439.5C 807.459,1434.19 812.293,1431.19 818.5,1430.5C 811.253,1458.08 801.92,1484.91 790.5,1511C 620.971,1512.37 451.638,1507.03 282.5,1495C 252.637,1492.89 222.97,1489.23 193.5,1484C 181.508,1482.79 171.675,1477.62 164,1468.5C 147.146,1445.12 134.812,1419.45 127,1391.5C 118.879,1366.44 115.212,1340.78 116,1314.5C 116.515,1306.29 119.015,1298.79 123.5,1292C 130.949,1289.48 138.615,1288.15 146.5,1288C 167.164,1287.5 187.831,1287.33 208.5,1287.5C 208.461,1249.75 206.628,1212.09 203,1174.5C 202.333,1156.83 202.333,1139.17 203,1121.5C 204.203,1088.54 214.869,1059.21 235,1033.5C 249.545,1021.14 265.379,1010.64 282.5,1002C 297.677,993.911 313.01,986.078 328.5,978.5C 319.057,759.553 392.724,574.386 549.5,423C 698.771,287.428 874.937,218.928 1078,217.5C 1278.61,218.892 1453.11,286.059 1601.5,419C 1771.14,580.849 1844.64,779.015 1822,1013.5C 1797.5,1184.78 1721.66,1328.28 1594.5,1444C 1439.7,1578.64 1259.03,1643.64 1052.5,1639C 957.411,1636.32 866.077,1616.65 778.5,1580C 940.725,1638.58 1104.39,1642.58 1269.5,1592C 1431.62,1538.49 1559.45,1440.66 1653,1298.5C 1743.1,1152.34 1772.43,994.669 1741,825.5C 1705.61,664.796 1623.78,533.629 1495.5,432C 1342.91,316.157 1170.58,265.49 978.5,280C 796.914,296.897 642.414,369.73 515,498.5C 388.625,632.548 327.291,792.215 331,977.5C 360.967,961.764 391.801,948.097 423.5,936.5 Z M 268.5,1042.5 C 268.369,1041.76 268.536,1041.09 269,1040.5C 276.931,1033.23 285.431,1026.73 294.5,1021C 337.907,993.307 380.907,965.14 423.5,936.5C 580.859,932.875 738.192,928.709 895.5,924C 825.363,950.38 754.696,975.38 683.5,999C 644.44,1011.91 604.774,1022.58 564.5,1031C 553.569,1032.91 542.569,1034.24 531.5,1035C 476.495,1035.28 421.495,1035.95 366.5,1037C 333.764,1037.72 301.097,1039.55 268.5,1042.5 Z M 385.5,1060.5 C 407.18,1060.42 428.846,1060.92 450.5,1062C 463.634,1062.64 476.634,1064.31 489.5,1067C 496.591,1068.46 502.758,1071.63 508,1076.5C 509.705,1080.62 511.205,1084.78 512.5,1089C 421.833,1089.67 331.167,1089.67 240.5,1089C 243.415,1081.67 246.748,1074.5 250.5,1067.5C 252,1067.17 253.5,1066.83 255,1066.5C 298.642,1064.15 342.142,1062.15 385.5,1060.5 Z M 237.5,1100.5 C 329.833,1100.5 422.167,1100.5 514.5,1100.5C 515.629,1109.46 516.296,1118.46 516.5,1127.5C 421.167,1127.5 325.833,1127.5 230.5,1127.5C 232.056,1118.27 234.389,1109.27 237.5,1100.5 Z M 228.5,1137.5 C 324.5,1137.5 420.5,1137.5 516.5,1137.5C 517.189,1151.31 516.856,1158.98 515.5,1160.5C 418.833,1160.5 322.167,1160.5 225.5,1160.5C 226.033,1152.77 227.033,1145.1 228.5,1137.5 Z M 1662.5,1166.5 C 1663.82,1166.33 1664.99,1166.66 1666,1167.5C 1669.71,1173.44 1670.04,1179.44 1667,1185.5C 1665,1188.17 1663,1188.17 1661,1185.5C 1657.56,1178.83 1658.06,1172.5 1662.5,1166.5 Z M 223.5,1170.5 C 320.833,1170.5 418.167,1170.5 515.5,1170.5C 515.499,1178.52 515.166,1186.52 514.5,1194.5C 416.833,1194.5 319.167,1194.5 221.5,1194.5C 222.497,1186.54 223.163,1178.54 223.5,1170.5 Z M 1621.5,1173.5 C 1623.41,1173.57 1624.58,1174.57 1625,1176.5C 1626.55,1183.42 1626.88,1190.42 1626,1197.5C 1625.75,1200.18 1624.75,1202.51 1623,1204.5C 1619.34,1199.86 1617.84,1194.52 1618.5,1188.5C 1618.14,1183.18 1619.14,1178.18 1621.5,1173.5 Z M 221.5,1204.5 C 318.833,1204.5 416.167,1204.5 513.5,1204.5C 512.893,1211.84 512.227,1219.17 511.5,1226.5C 414.507,1224.68 317.507,1223.01 220.5,1221.5C 220.214,1215.74 220.548,1210.07 221.5,1204.5 Z M 1474.5,1204.5 C 1478.04,1204.87 1480.21,1206.87 1481,1210.5C 1484.82,1223.44 1484.15,1236.11 1479,1248.5C 1475.28,1251.21 1472.61,1250.21 1471,1245.5C 1467.52,1235.69 1466.86,1225.69 1469,1215.5C 1469.81,1211.21 1471.64,1207.55 1474.5,1204.5 Z M 1406.5,1220.5 C 1410.49,1220.24 1413.33,1221.91 1415,1225.5C 1420.55,1238.36 1420.89,1251.36 1416,1264.5C 1411.79,1273.23 1407.12,1273.56 1402,1265.5C 1397.33,1252.5 1397.33,1239.5 1402,1226.5C 1403.33,1224.34 1404.83,1222.34 1406.5,1220.5 Z M 219.5,1231.5 C 316.472,1233.47 413.472,1235.14 510.5,1236.5C 509.54,1244.14 508.874,1251.81 508.5,1259.5C 411.83,1258.42 315.163,1257.08 218.5,1255.5C 218.501,1247.48 218.834,1239.48 219.5,1231.5 Z M 1337.5,1238.5 C 1341.43,1238.05 1344.59,1239.38 1347,1242.5C 1355.85,1259.06 1355.51,1275.39 1346,1291.5C 1341.01,1295.74 1336.67,1295.07 1333,1289.5C 1326.45,1275.49 1325.78,1261.15 1331,1246.5C 1332.48,1243.17 1334.65,1240.51 1337.5,1238.5 Z M 927.5,1299.5 C 936.532,1298.12 943.698,1301.12 949,1308.5C 960.196,1327.33 964.196,1347.66 961,1369.5C 959.605,1384.72 953.438,1397.55 942.5,1408C 935.272,1412.69 928.272,1412.36 921.5,1407C 913.037,1398.58 907.871,1388.41 906,1376.5C 900.75,1352.82 904.083,1330.49 916,1309.5C 919.435,1305.55 923.268,1302.22 927.5,1299.5 Z"/></g>
<g><path style="opacity:0.965" fill="#fefffe" d="M 1165.5,507.5 C 1199.78,504.985 1225.28,518.651 1242,548.5C 1253.68,571.549 1261.35,595.882 1265,621.5C 1268.32,642.709 1270.32,664.042 1271,685.5C 1272.3,758.834 1273.64,832.167 1275,905.5C 1275.83,953.509 1275.5,1001.51 1274,1049.5C 1273.93,1059.93 1272.43,1070.1 1269.5,1080C 1266.18,1080.5 1262.85,1080.67 1259.5,1080.5C 1253.86,996.194 1248.36,911.861 1243,827.5C 1239.66,777.78 1235.66,728.113 1231,678.5C 1228.82,655.722 1225.82,633.055 1222,610.5C 1218.33,590.962 1208.49,575.462 1192.5,564C 1177.9,557.853 1162.9,556.853 1147.5,561C 1128.7,566.566 1111.04,574.566 1094.5,585C 1083.33,592.085 1072.33,599.419 1061.5,607C 1030.32,631.092 999.319,655.425 968.5,680C 960.355,686.406 951.355,691.24 941.5,694.5C 940.062,694.281 938.729,693.781 937.5,693C 956.214,669.742 975.047,646.575 994,623.5C 1027.73,586.076 1065.9,554.243 1108.5,528C 1126.53,518.048 1145.53,511.215 1165.5,507.5 Z"/></g>
<g><path style="opacity:0.932" fill="#fefffe" d="M 988.5,519.5 C 991.85,519.335 995.183,519.502 998.5,520C 997.874,520.75 997.374,521.584 997,522.5C 953.744,566.092 909.577,608.592 864.5,650C 828.933,658.367 792.933,664.034 756.5,667C 701.94,672.047 647.274,674.714 592.5,675C 608.466,669.806 624.799,666.14 641.5,664C 687.454,657.968 733.454,652.301 779.5,647C 797.441,645.066 815.107,641.732 832.5,637C 847.483,630.339 861.149,621.673 873.5,611C 894.5,591.333 914.833,571 934.5,550C 944.33,541.171 954.996,533.504 966.5,527C 973.708,523.765 981.042,521.265 988.5,519.5 Z"/></g>
<g><path style="opacity:0.96" fill="#fefffe" d="M 1293.5,541.5 C 1294.87,541.343 1296.21,541.51 1297.5,542C 1393.92,615.888 1489.26,691.221 1583.5,768C 1609.12,787.284 1634.45,806.951 1659.5,827C 1667.45,833.146 1674.78,839.979 1681.5,847.5C 1679.16,848.512 1676.83,848.345 1674.5,847C 1567.11,785.231 1462.11,719.897 1359.5,651C 1335.65,634.82 1312.65,617.486 1290.5,599C 1287.55,595.592 1284.71,592.092 1282,588.5C 1281.13,575.829 1282.79,563.495 1287,551.5C 1288.43,547.626 1290.6,544.293 1293.5,541.5 Z"/></g>
<g><path style="opacity:0.945" fill="#fefffe" d="M 1290.5,625.5 C 1362.48,668.487 1432.81,713.987 1501.5,762C 1504.83,764.667 1508.17,767.333 1511.5,770C 1514.07,772.067 1516.07,774.567 1517.5,777.5C 1515.58,778.641 1513.58,778.808 1511.5,778C 1505.42,775.863 1499.42,773.529 1493.5,771C 1425.12,736.726 1357.28,701.56 1290,665.5C 1289.39,652.155 1289.56,638.822 1290.5,625.5 Z"/></g>
<g><path style="opacity:0.952" fill="#fefffe" d="M 1021.5,664.5 C 1044.13,666.49 1066.13,671.99 1087.5,681C 1096.28,684.8 1104.11,689.967 1111,696.5C 1112.86,698.888 1114.19,701.554 1115,704.5C 1116.02,822.509 1117.68,940.509 1120,1058.5C 1120.64,1080.52 1121.64,1102.52 1123,1124.5C 1123.44,1135.34 1124.94,1146 1127.5,1156.5C 1131.67,1156.83 1135.83,1157.17 1140,1157.5C 1251.2,1153.47 1362.37,1148.63 1473.5,1143C 1523.52,1141.63 1573.52,1141.13 1623.5,1141.5C 1626.47,1142.14 1629.47,1142.64 1632.5,1143C 1631.83,1143.33 1631.17,1143.67 1630.5,1144C 1635.91,1148.29 1639.74,1153.79 1642,1160.5C 1643.97,1166.36 1645.3,1172.36 1646,1178.5C 1646.07,1163.83 1649.07,1149.83 1655,1136.5C 1660.26,1128.9 1665.93,1128.57 1672,1135.5C 1677.5,1146.15 1680.5,1157.48 1681,1169.5C 1682.36,1186.26 1680.36,1202.59 1675,1218.5C 1673.27,1224.4 1669.44,1228.06 1663.5,1229.5C 1660.34,1228.84 1657.84,1227.18 1656,1224.5C 1650.51,1214.55 1647.51,1203.88 1647,1192.5C 1647.45,1208.96 1643.11,1223.96 1634,1237.5C 1625.4,1243.61 1617.73,1242.61 1611,1234.5C 1599.94,1212.47 1597.61,1189.47 1604,1165.5C 1605.46,1158.41 1608.63,1152.24 1613.5,1147C 1470.36,1161.74 1327.03,1174.74 1183.5,1186C 1155.85,1188.28 1128.18,1189.95 1100.5,1191C 1099.04,1184.97 1098.2,1178.8 1098,1172.5C 1097.01,1151.84 1096.34,1131.18 1096,1110.5C 1095.67,977.167 1095.33,843.833 1095,710.5C 1073.83,689.99 1049.33,674.656 1021.5,664.5 Z M 1662.5,1166.5 C 1658.06,1172.5 1657.56,1178.83 1661,1185.5C 1663,1188.17 1665,1188.17 1667,1185.5C 1670.04,1179.44 1669.71,1173.44 1666,1167.5C 1664.99,1166.66 1663.82,1166.33 1662.5,1166.5 Z M 1621.5,1173.5 C 1619.14,1178.18 1618.14,1183.18 1618.5,1188.5C 1617.84,1194.52 1619.34,1199.86 1623,1204.5C 1624.75,1202.51 1625.75,1200.18 1626,1197.5C 1626.88,1190.42 1626.55,1183.42 1625,1176.5C 1624.58,1174.57 1623.41,1173.57 1621.5,1173.5 Z"/></g>
<g><path style="opacity:0.956" fill="#fefffe" d="M 1298.5,854.5 C 1363.3,874.155 1427.97,894.322 1492.5,915C 1549.57,934.469 1606.91,953.136 1664.5,971C 1672.48,973.492 1680.15,976.659 1687.5,980.5C 1687,981.881 1686,982.547 1684.5,982.5C 1589.18,966.937 1494.52,948.103 1400.5,926C 1369.94,919.193 1339.94,910.527 1310.5,900C 1307.24,898.789 1304.41,896.956 1302,894.5C 1296.31,881.482 1295.14,868.149 1298.5,854.5 Z"/></g>
<g><path style="opacity:0.955" fill="#fefffe" d="M 840.5,1065.5 C 855.17,1065.33 869.837,1065.5 884.5,1066C 912.42,1067.63 937.086,1077.3 958.5,1095C 987.504,1119.88 1011.67,1148.71 1031,1181.5C 1039.25,1196.34 1047.25,1211.34 1055,1226.5C 1059.21,1234.05 1065.54,1238.39 1074,1239.5C 1088.12,1237.08 1102.29,1234.91 1116.5,1233C 1156.18,1229.18 1195.85,1225.18 1235.5,1221C 1253.6,1218.54 1271.6,1215.87 1289.5,1213C 1221.66,1235.63 1152.33,1252.29 1081.5,1263C 1068.55,1264.83 1055.55,1265.5 1042.5,1265C 1039.55,1264.19 1036.89,1262.86 1034.5,1261C 1030.29,1256.45 1026.45,1251.62 1023,1246.5C 1010.14,1222.78 997.807,1198.78 986,1174.5C 975.898,1155.05 962.732,1137.89 946.5,1123C 932.119,1111.87 915.786,1106.54 897.5,1107C 803.65,1106.23 711.65,1118.9 621.5,1145C 598.05,1151.92 576.05,1161.92 555.5,1175C 553.044,1175.95 551.044,1175.45 549.5,1173.5C 566.549,1160.98 584.549,1149.81 603.5,1140C 664.377,1108.6 728.377,1085.93 795.5,1072C 810.587,1069.41 825.587,1067.24 840.5,1065.5 Z"/></g>
<g><path style="opacity:0.955" fill="#fefffe" d="M 1470.5,1162.5 C 1476.93,1161.35 1482.43,1163.01 1487,1167.5C 1494.59,1177.92 1499.26,1189.59 1501,1202.5C 1505.45,1227.92 1503.79,1252.92 1496,1277.5C 1493.44,1284.79 1489.28,1290.96 1483.5,1296C 1478.17,1299.33 1472.83,1299.33 1467.5,1296C 1462.85,1292.36 1459.35,1287.86 1457,1282.5C 1445.14,1249.74 1444.47,1216.74 1455,1183.5C 1457.78,1174.58 1462.95,1167.58 1470.5,1162.5 Z M 1474.5,1204.5 C 1471.64,1207.55 1469.81,1211.21 1469,1215.5C 1466.86,1225.69 1467.52,1235.69 1471,1245.5C 1472.61,1250.21 1475.28,1251.21 1479,1248.5C 1484.15,1236.11 1484.82,1223.44 1481,1210.5C 1480.21,1206.87 1478.04,1204.87 1474.5,1204.5 Z"/></g>
<g><path style="opacity:0.978" fill="#fefffe" d="M 911.5,1164.5 C 939.665,1161.67 962.499,1171.33 980,1193.5C 998.736,1220.01 1011.07,1249.35 1017,1281.5C 1023.57,1310.75 1025.74,1340.25 1023.5,1370C 1024.17,1371 1024.83,1372 1025.5,1373C 1029.45,1374.06 1033.45,1374.9 1037.5,1375.5C 1051.58,1374.32 1065.58,1372.49 1079.5,1370C 1119.8,1361.59 1159.8,1352.26 1199.5,1342C 1131.13,1369.52 1062.8,1397.02 994.5,1424.5C 990.789,1450.8 982.956,1475.8 971,1499.5C 964.995,1510.51 957.161,1520.01 947.5,1528C 930.577,1539.56 913.911,1539.23 897.5,1527C 881.931,1512.41 870.764,1494.91 864,1474.5C 842,1405.5 842,1336.5 864,1267.5C 871.129,1246.72 882.629,1228.88 898.5,1214C 903.944,1210.11 909.944,1207.61 916.5,1206.5C 916.255,1201.95 916.588,1197.45 917.5,1193C 917.095,1192.05 916.428,1191.39 915.5,1191C 906.303,1190.38 897.97,1192.71 890.5,1198C 883.03,1204.47 875.864,1211.3 869,1218.5C 855.156,1236.21 841.322,1253.87 827.5,1271.5C 829.75,1242.92 839.25,1216.92 856,1193.5C 870.894,1176.8 889.394,1167.14 911.5,1164.5 Z M 927.5,1299.5 C 923.268,1302.22 919.435,1305.55 916,1309.5C 904.083,1330.49 900.75,1352.82 906,1376.5C 907.871,1388.41 913.037,1398.58 921.5,1407C 928.272,1412.36 935.272,1412.69 942.5,1408C 953.438,1397.55 959.605,1384.72 961,1369.5C 964.196,1347.66 960.196,1327.33 949,1308.5C 943.698,1301.12 936.532,1298.12 927.5,1299.5 Z"/></g>
<g><path style="opacity:0.959" fill="#fefffe" d="M 1404.5,1171.5 C 1412.99,1171 1419.49,1174.33 1424,1181.5C 1434.84,1203.53 1440.01,1226.86 1439.5,1251.5C 1439.6,1271.38 1436.43,1290.71 1430,1309.5C 1427.01,1319.14 1421.18,1326.31 1412.5,1331C 1404.6,1332.14 1398.43,1329.3 1394,1322.5C 1386.42,1309.87 1381.76,1296.2 1380,1281.5C 1375.85,1252.72 1377.85,1224.39 1386,1196.5C 1389.29,1185.88 1395.45,1177.55 1404.5,1171.5 Z M 1406.5,1220.5 C 1404.83,1222.34 1403.33,1224.34 1402,1226.5C 1397.33,1239.5 1397.33,1252.5 1402,1265.5C 1407.12,1273.56 1411.79,1273.23 1416,1264.5C 1420.89,1251.36 1420.55,1238.36 1415,1225.5C 1413.33,1221.91 1410.49,1220.24 1406.5,1220.5 Z"/></g>
<g><path style="opacity:0.965" fill="#fefffe" d="M 1335.5,1180.5 C 1344.08,1180.21 1350.91,1183.54 1356,1190.5C 1364.27,1202.97 1369.6,1216.63 1372,1231.5C 1378.78,1267.93 1376.12,1303.59 1364,1338.5C 1360.3,1348.09 1354.13,1355.59 1345.5,1361C 1339.51,1363.28 1333.84,1362.61 1328.5,1359C 1322.33,1353.48 1317.49,1346.98 1314,1339.5C 1298.22,1296.08 1297.56,1252.41 1312,1208.5C 1314.64,1201.22 1318.3,1194.56 1323,1188.5C 1326.72,1184.91 1330.88,1182.24 1335.5,1180.5 Z M 1337.5,1238.5 C 1334.65,1240.51 1332.48,1243.17 1331,1246.5C 1325.78,1261.15 1326.45,1275.49 1333,1289.5C 1336.67,1295.07 1341.01,1295.74 1346,1291.5C 1355.51,1275.39 1355.85,1259.06 1347,1242.5C 1344.59,1239.38 1341.43,1238.05 1337.5,1238.5 Z"/></g>
<g><path style="opacity:0.969" fill="#fefffe" d="M 687.5,1205.5 C 719.36,1204.53 734.527,1219.86 733,1251.5C 725.21,1273.32 709.71,1282.82 686.5,1280C 665.232,1274.29 655.065,1260.46 656,1238.5C 659.568,1220.77 670.068,1209.77 687.5,1205.5 Z"/></g>
<g><path style="opacity:0.96" fill="#fefffe" d="M 126.5,1211.5 C 149.481,1213.75 159.315,1226.42 156,1249.5C 148.338,1270.08 134.504,1275.92 114.5,1267C 103.734,1258.37 99.9007,1247.21 103,1233.5C 106.569,1221.43 114.403,1214.09 126.5,1211.5 Z"/></g>
<g><path style="opacity:0.948" fill="#fefffe" d="M 175.5,1219.5 C 188.769,1222.31 195.102,1230.64 194.5,1244.5C 194.95,1254 191.616,1261.83 184.5,1268C 172.864,1272.1 165.031,1268.27 161,1256.5C 157.574,1244.69 159.407,1233.85 166.5,1224C 169.324,1221.92 172.324,1220.42 175.5,1219.5 Z"/></g>
<g><path style="opacity:0.965" fill="#fefffe" d="M 589.5,1224.5 C 604.255,1222.44 617.922,1225.27 630.5,1233C 639.777,1240.46 641.944,1249.63 637,1260.5C 629.986,1268.59 621.153,1273.42 610.5,1275C 594.36,1277.77 579.693,1274.44 566.5,1265C 556.313,1252.64 557.647,1241.64 570.5,1232C 576.604,1228.58 582.937,1226.08 589.5,1224.5 Z"/></g>
<g><path style="opacity:0.948" fill="#fefffe" d="M 698.5,1336.5 C 723.535,1336.32 748.535,1337.15 773.5,1339C 781.596,1339.78 789.596,1341.11 797.5,1343C 801.869,1344.27 805.703,1346.43 809,1349.5C 809.166,1386.84 800.833,1422.17 784,1455.5C 780.246,1461.26 775.746,1466.42 770.5,1471C 765.481,1473.67 760.148,1475.34 754.5,1476C 742.5,1476.67 730.5,1476.67 718.5,1476C 652.355,1471.17 586.355,1464.84 520.5,1457C 515.882,1456.65 511.548,1455.48 507.5,1453.5C 512.869,1451.98 518.369,1451.32 524,1451.5C 573.817,1454.43 623.65,1454.93 673.5,1453C 692.205,1452.2 710.538,1449.2 728.5,1444C 732.286,1442.61 735.952,1440.94 739.5,1439C 765.703,1418.56 774.703,1392.06 766.5,1359.5C 753.629,1356.93 740.629,1355.1 727.5,1354C 687.173,1349.93 646.839,1345.93 606.5,1342C 637.233,1339.17 667.9,1337.33 698.5,1336.5 Z"/></g>
<g><path style="opacity:0.983" fill="#fefffe" d="M 216.5,1338.5 C 246.081,1341.71 275.748,1343.87 305.5,1345C 370.005,1347.55 434.505,1350.05 499,1352.5C 500.167,1352.83 501.333,1353.17 502.5,1353.5C 509.68,1377.09 506.846,1399.42 494,1420.5C 489.131,1427.02 482.631,1430.52 474.5,1431C 414.814,1435.38 355.481,1432.38 296.5,1422C 247.545,1415.54 220.879,1387.71 216.5,1338.5 Z"/></g>
<g><path style="opacity:0.96" fill="#fefffe" d="M 607.5,1382.5 C 619.704,1381.17 629.204,1385.5 636,1395.5C 646.906,1382.73 660.406,1379.23 676.5,1385C 689.437,1390.71 694.604,1400.54 692,1414.5C 684.929,1428.62 673.429,1434.79 657.5,1433C 647.097,1431.72 639.264,1426.55 634,1417.5C 624.736,1426.4 613.903,1428.9 601.5,1425C 589.208,1420.25 584.374,1411.42 587,1398.5C 591.343,1389.92 598.176,1384.59 607.5,1382.5 Z"/></g>
<g><path style="opacity:1" fill="#fefffe" d="M 139.5,1568.5 C 162.836,1568.33 186.169,1568.5 209.5,1569C 212.316,1571.13 213.649,1573.97 213.5,1577.5C 212.442,1584.85 211.275,1592.18 210,1599.5C 208.5,1602.33 206.333,1604.5 203.5,1606C 184.927,1606.17 166.427,1606.67 148,1607.5C 144.933,1624.8 142.1,1642.14 139.5,1659.5C 157.836,1659.33 176.17,1659.5 194.5,1660C 197.407,1661.8 199.074,1664.47 199.5,1668C 198.161,1676.2 196.661,1684.37 195,1692.5C 193.457,1694.38 191.624,1695.88 189.5,1697C 166.5,1697.67 143.5,1697.67 120.5,1697C 110.128,1694.46 103.628,1687.96 101,1677.5C 100.333,1671.17 100.333,1664.83 101,1658.5C 104.225,1638.15 107.559,1617.81 111,1597.5C 116.044,1583.29 125.544,1573.62 139.5,1568.5 Z"/></g>
<g><path style="opacity:1" fill="#fefffe" d="M 278.5,1568.5 C 285.508,1568.33 292.508,1568.5 299.5,1569C 302.196,1569.69 304.363,1571.19 306,1573.5C 317.22,1611.55 328.054,1649.71 338.5,1688C 338.332,1691.84 336.665,1694.84 333.5,1697C 323.167,1697.67 312.833,1697.67 302.5,1697C 299.096,1693.57 297.429,1689.4 297.5,1684.5C 281.497,1684.33 265.497,1684.5 249.5,1685C 246.885,1689.28 243.885,1693.28 240.5,1697C 229.5,1697.67 218.5,1697.67 207.5,1697C 203.788,1694.49 202.622,1690.99 204,1686.5C 225.535,1647.92 247.702,1609.76 270.5,1572C 273.158,1570.52 275.825,1569.36 278.5,1568.5 Z M 280.5,1629.5 C 281.497,1629.47 282.164,1629.97 282.5,1631C 283.862,1636.79 285.529,1642.45 287.5,1648C 281.804,1648.83 276.137,1648.66 270.5,1647.5C 273.845,1641.47 277.179,1635.47 280.5,1629.5 Z"/></g>
<g><path style="opacity:1" fill="#fefffe" d="M 373.5,1568.5 C 402.169,1568.33 430.835,1568.5 459.5,1569C 473.249,1573.99 479.915,1583.82 479.5,1598.5C 478.461,1611.6 476.628,1624.6 474,1637.5C 470.841,1647.99 464.674,1656.15 455.5,1662C 460.513,1670.86 464.846,1680.03 468.5,1689.5C 467.786,1691.81 466.786,1693.98 465.5,1696C 453.93,1697.62 442.264,1697.96 430.5,1697C 428.998,1696.42 427.665,1695.58 426.5,1694.5C 422.225,1685.62 418.225,1676.62 414.5,1667.5C 406.608,1666.19 398.775,1666.19 391,1667.5C 389.883,1675.54 388.55,1683.54 387,1691.5C 386.215,1693.29 385.049,1694.79 383.5,1696C 373.6,1697.62 363.6,1697.95 353.5,1697C 349.797,1693.6 348.631,1689.44 350,1684.5C 355.667,1648.5 361.333,1612.5 367,1576.5C 368.305,1573.04 370.471,1570.37 373.5,1568.5 Z M 400.5,1605.5 C 413.504,1605.33 426.504,1605.5 439.5,1606C 440.059,1606.72 440.392,1607.56 440.5,1608.5C 439.62,1613.49 438.787,1618.49 438,1623.5C 437.837,1625.68 437.004,1627.51 435.5,1629C 422.838,1629.5 410.171,1629.67 397.5,1629.5C 398.5,1621.5 399.5,1613.5 400.5,1605.5 Z"/></g>
<g><path style="opacity:1" fill="#fefffe" d="M 508.5,1568.5 C 537.169,1568.33 565.835,1568.5 594.5,1569C 608.249,1573.99 614.915,1583.82 614.5,1598.5C 613.32,1611.58 611.486,1624.58 609,1637.5C 605.858,1647.95 599.692,1656.12 590.5,1662C 595.513,1670.86 599.846,1680.03 603.5,1689.5C 602.786,1691.81 601.786,1693.98 600.5,1696C 594.437,1697.13 588.271,1697.63 582,1697.5C 575.423,1697.61 568.923,1697.11 562.5,1696C 557.764,1686.69 553.431,1677.19 549.5,1667.5C 541.608,1666.19 533.775,1666.19 526,1667.5C 524.853,1675.53 523.519,1683.53 522,1691.5C 521.215,1693.29 520.049,1694.79 518.5,1696C 508.6,1697.62 498.6,1697.95 488.5,1697C 484.797,1693.6 483.631,1689.44 485,1684.5C 490.678,1647.43 496.678,1610.43 503,1573.5C 504.73,1571.6 506.563,1569.93 508.5,1568.5 Z M 535.5,1605.5 C 548.504,1605.33 561.504,1605.5 574.5,1606C 575.059,1606.72 575.392,1607.56 575.5,1608.5C 574.62,1613.49 573.787,1618.49 573,1623.5C 572.837,1625.68 572.004,1627.51 570.5,1629C 557.838,1629.5 545.171,1629.67 532.5,1629.5C 533.313,1621.48 534.313,1613.48 535.5,1605.5 Z"/></g>
<g><path style="opacity:1" fill="#fefffe" d="M 630.5,1568.5 C 641.603,1568.05 652.603,1568.55 663.5,1570C 668.782,1582 673.782,1594.17 678.5,1606.5C 686.973,1594.19 695.639,1582.03 704.5,1570C 715.736,1568.38 727.069,1568.04 738.5,1569C 742.32,1572.96 742.487,1577.12 739,1581.5C 723.333,1604.5 707.667,1627.5 692,1650.5C 689.02,1663.02 686.687,1675.68 685,1688.5C 684.332,1692.5 682.165,1695.33 678.5,1697C 669.5,1697.67 660.5,1697.67 651.5,1697C 648.187,1695.43 646.521,1692.77 646.5,1689C 648.446,1676.82 650.446,1664.66 652.5,1652.5C 643.767,1627.8 634.934,1603.13 626,1578.5C 625.077,1574.02 626.577,1570.68 630.5,1568.5 Z"/></g>
<g><path style="opacity:1" fill="#fefffe" d="M 764.5,1685.5 C 772.507,1685.33 780.507,1685.5 788.5,1686C 790.667,1686.83 792.167,1688.33 793,1690.5C 789.941,1716.19 786.441,1741.86 782.5,1767.5C 797.504,1767.33 812.504,1767.5 827.5,1768C 829.848,1768.35 831.681,1769.51 833,1771.5C 833.502,1780.66 832.502,1789.66 830,1798.5C 828.363,1800.81 826.196,1802.31 823.5,1803C 798.5,1803.67 773.5,1803.67 748.5,1803C 744.813,1801.64 742.813,1798.97 742.5,1795C 747.87,1759.74 753.703,1724.58 760,1689.5C 761.397,1687.93 762.897,1686.6 764.5,1685.5 Z"/></g>
<g><path style="opacity:1" fill="#fefffe" d="M 879.5,1685.5 C 902.169,1685.33 924.836,1685.5 947.5,1686C 953.832,1687.42 958.665,1690.92 962,1696.5C 964.667,1701.49 966.167,1706.83 966.5,1712.5C 963.333,1732.83 960.167,1753.17 957,1773.5C 953.009,1789.83 942.842,1799.66 926.5,1803C 906.167,1803.67 885.833,1803.67 865.5,1803C 851.56,1799.88 844.226,1791.04 843.5,1776.5C 846.459,1754.41 849.959,1732.41 854,1710.5C 858.452,1697.88 866.952,1689.55 879.5,1685.5 Z M 887.5,1720.5 C 901.5,1720.5 915.5,1720.5 929.5,1720.5C 927.725,1735.92 925.392,1751.26 922.5,1766.5C 908.178,1767.67 893.845,1767.83 879.5,1767C 882.213,1751.51 884.88,1736.01 887.5,1720.5 Z"/></g>
<g><path style="opacity:1" fill="#fefffe" d="M 1009.5,1685.5 C 1034.84,1685.33 1060.17,1685.5 1085.5,1686C 1089.19,1687.36 1091.19,1690.03 1091.5,1694C 1090.57,1702.08 1088.74,1709.92 1086,1717.5C 1084.58,1718.46 1083.08,1719.29 1081.5,1720C 1059.5,1720.33 1037.5,1720.67 1015.5,1721C 1012.42,1736.4 1009.75,1751.9 1007.5,1767.5C 1020.17,1767.5 1032.83,1767.5 1045.5,1767.5C 1045.5,1765.17 1045.5,1762.83 1045.5,1760.5C 1038.49,1760.67 1031.49,1760.5 1024.5,1760C 1022.85,1758.53 1021.85,1756.7 1021.5,1754.5C 1022.81,1747.53 1023.97,1740.53 1025,1733.5C 1025.27,1731.67 1026.11,1730.17 1027.5,1729C 1044.43,1727.38 1061.43,1727.04 1078.5,1728C 1082.82,1729.12 1084.82,1731.96 1084.5,1736.5C 1081.81,1754.85 1078.97,1773.19 1076,1791.5C 1075.85,1796.98 1073.35,1800.81 1068.5,1803C 1043.5,1803.67 1018.5,1803.67 993.5,1803C 981.904,1801.41 974.738,1794.91 972,1783.5C 971.333,1778.5 971.333,1773.5 972,1768.5C 974.795,1748.73 978.128,1729.06 982,1709.5C 987.045,1696.61 996.211,1688.61 1009.5,1685.5 Z"/></g>
<g><path style="opacity:1" fill="#fefffe" d="M 1114.5,1685.5 C 1122.51,1685.33 1130.51,1685.5 1138.5,1686C 1141.27,1687.68 1142.93,1690.18 1143.5,1693.5C 1137.79,1727.78 1132.29,1762.12 1127,1796.5C 1125.41,1799.76 1122.91,1801.92 1119.5,1803C 1111.42,1803.9 1103.42,1803.57 1095.5,1802C 1092.64,1798.32 1091.81,1794.15 1093,1789.5C 1098.05,1756.45 1103.39,1723.45 1109,1690.5C 1110.73,1688.6 1112.56,1686.93 1114.5,1685.5 Z"/></g>
<g><path style="opacity:1" fill="#fefffe" d="M 1182.5,1685.5 C 1206.5,1685.33 1230.5,1685.5 1254.5,1686C 1257.81,1687.57 1259.48,1690.23 1259.5,1694C 1258.5,1700.86 1257.33,1707.69 1256,1714.5C 1255.05,1716.57 1253.55,1718.07 1251.5,1719C 1230.22,1720.13 1208.89,1720.97 1187.5,1721.5C 1186.63,1723.75 1186.29,1726.08 1186.5,1728.5C 1202.5,1728.33 1218.5,1728.5 1234.5,1729C 1242.98,1730.65 1248.81,1735.49 1252,1743.5C 1255.23,1758.81 1253.23,1773.47 1246,1787.5C 1240.18,1796.3 1232.02,1801.47 1221.5,1803C 1197.08,1803.98 1172.75,1803.65 1148.5,1802C 1147.67,1801.17 1146.83,1800.33 1146,1799.5C 1145.36,1790.33 1146.36,1781.33 1149,1772.5C 1150.17,1771.33 1151.33,1770.17 1152.5,1769C 1174.44,1767.7 1196.44,1767.03 1218.5,1767C 1219.41,1765.3 1219.74,1763.47 1219.5,1761.5C 1203.83,1761.67 1188.16,1761.5 1172.5,1761C 1163.59,1759.63 1157.42,1754.8 1154,1746.5C 1151.03,1732.95 1152.03,1719.62 1157,1706.5C 1162.42,1695.57 1170.92,1688.57 1182.5,1685.5 Z"/></g>
<g><path style="opacity:1" fill="#fefffe" d="M 1277.5,1685.5 C 1307.84,1685.33 1338.17,1685.5 1368.5,1686C 1371.88,1688.07 1373.21,1691.07 1372.5,1695C 1371.93,1701.94 1370.76,1708.77 1369,1715.5C 1367.83,1716.67 1366.67,1717.83 1365.5,1719C 1355.51,1719.5 1345.51,1719.67 1335.5,1719.5C 1331.66,1745.55 1327.49,1771.55 1323,1797.5C 1321.75,1800.38 1319.58,1802.21 1316.5,1803C 1309.17,1803.67 1301.83,1803.67 1294.5,1803C 1290.81,1801.64 1288.81,1798.97 1288.5,1795C 1292.56,1769.83 1296.56,1744.66 1300.5,1719.5C 1291.16,1719.67 1281.83,1719.5 1272.5,1719C 1269.48,1717.47 1268.15,1714.97 1268.5,1711.5C 1269.25,1703.99 1270.75,1696.66 1273,1689.5C 1274.4,1687.93 1275.9,1686.6 1277.5,1685.5 Z"/></g>
<g><path style="opacity:1" fill="#fefffe" d="M 1389.5,1685.5 C 1397.51,1685.33 1405.51,1685.5 1413.5,1686C 1416.78,1687.4 1418.45,1689.9 1418.5,1693.5C 1413.11,1728.19 1407.61,1762.85 1402,1797.5C 1400.75,1800.38 1398.58,1802.21 1395.5,1803C 1388.17,1803.67 1380.83,1803.67 1373.5,1803C 1369.26,1801.86 1367.26,1799.03 1367.5,1794.5C 1372.86,1760.14 1378.36,1725.81 1384,1691.5C 1385.36,1688.98 1387.19,1686.98 1389.5,1685.5 Z"/></g>
<g><path style="opacity:1" fill="#fefffe" d="M 1457.5,1685.5 C 1478.5,1685.33 1499.5,1685.5 1520.5,1686C 1523.89,1687.97 1525.22,1690.97 1524.5,1695C 1523.93,1701.94 1522.76,1708.77 1521,1715.5C 1519.46,1717.38 1517.62,1718.88 1515.5,1720C 1498.82,1720.17 1482.16,1720.67 1465.5,1721.5C 1462.61,1736.74 1460.27,1752.08 1458.5,1767.5C 1474.17,1767.33 1489.84,1767.5 1505.5,1768C 1510.29,1769.12 1512.29,1772.12 1511.5,1777C 1510.98,1784.28 1509.82,1791.45 1508,1798.5C 1506.36,1800.81 1504.2,1802.31 1501.5,1803C 1482.17,1803.67 1462.83,1803.67 1443.5,1803C 1429.12,1799.97 1421.79,1790.97 1421.5,1776C 1424.53,1754.42 1428.03,1732.92 1432,1711.5C 1436.04,1698.29 1444.54,1689.62 1457.5,1685.5 Z"/></g>
<g><path style="opacity:1" fill="#fefffe" d="M 1560.5,1685.5 C 1584.5,1685.33 1608.5,1685.5 1632.5,1686C 1636.08,1687.66 1637.75,1690.5 1637.5,1694.5C 1636.81,1700.19 1635.97,1705.85 1635,1711.5C 1634.39,1714.55 1632.89,1717.05 1630.5,1719C 1609.22,1720.29 1587.88,1720.96 1566.5,1721C 1565.13,1723.3 1564.47,1725.8 1564.5,1728.5C 1580.84,1728.33 1597.17,1728.5 1613.5,1729C 1628.54,1734.56 1634.71,1745.4 1632,1761.5C 1631.69,1779.31 1623.86,1792.47 1608.5,1801C 1605.58,1801.99 1602.58,1802.65 1599.5,1803C 1587.83,1803.17 1576.17,1803.33 1564.5,1803.5C 1551.77,1803.64 1539.1,1803.14 1526.5,1802C 1524.26,1800.01 1523.26,1797.51 1523.5,1794.5C 1524.19,1788.81 1525.03,1783.15 1526,1777.5C 1526.27,1772.56 1528.77,1769.4 1533.5,1768C 1554.5,1767.67 1575.5,1767.33 1596.5,1767C 1597.17,1765.33 1597.83,1763.67 1598.5,1762C 1581.12,1761.93 1563.79,1761.26 1546.5,1760C 1539.67,1757.17 1534.83,1752.33 1532,1745.5C 1529.6,1732.6 1530.6,1719.93 1535,1707.5C 1540.03,1695.96 1548.53,1688.62 1560.5,1685.5 Z"/></g>
</svg>
